<?xml version="1.0" standalone="no"?>
<!DOCTYPE svg PUBLIC "-//W3C//DTD SVG 20010904//EN"
 "http://www.w3.org/TR/2001/REC-SVG-20010904/DTD/svg10.dtd">
<svg version="1.0" xmlns="http://www.w3.org/2000/svg"
 width="290.000000pt" height="290.000000pt" viewBox="0 0 290.000000 290.000000"
 preserveAspectRatio="xMidYMid meet">
<metadata>
Created by potrace 1.11, written by Peter Selinger 2001-2013
</metadata>
<g transform="translate(0.000000,290.000000) scale(0.100000,-0.100000)"
fill="#000000" stroke="none">
<path d="M1620 2497 c-22 -11 -30 -33 -72 -212 -45 -188 -105 -441 -113 -476
-2 -9 -15 -65 -30 -125 -15 -60 -29 -120 -31 -134 -8 -43 -52 -211 -56 -214
-1 -1 -21 -13 -43 -26 -175 -103 -373 -273 -453 -391 -110 -162 -171 -385
-128 -468 26 -49 62 -66 146 -66 95 0 130 17 218 105 111 111 224 319 292 535
17 55 43 134 58 175 l27 75 100 53 c151 79 135 91 135 -110 0 -425 9 -791 19
-801 13 -13 108 -17 139 -6 l23 9 -6 227 c-6 308 -15 632 -19 723 l-4 75 82
54 c262 171 360 360 306 593 -29 126 -148 268 -226 268 -39 0 -74 -25 -74 -53
0 -12 20 -47 45 -77 63 -76 93 -129 110 -197 51 -200 -10 -338 -197 -447 -34
-20 -48 -24 -49 -14 0 7 -2 27 -4 43 -1 17 -6 81 -9 143 -4 61 -8 118 -11 125
-2 6 -6 41 -9 77 -4 36 -9 81 -12 100 -17 115 -37 233 -49 288 -8 34 -17 76
-20 93 -12 68 -34 82 -85 56z m14 -527 c4 -36 9 -83 11 -105 10 -96 15 -157
21 -257 l6 -108 -69 -31 c-37 -17 -79 -36 -93 -42 -14 -6 -29 -13 -34 -16 -5
-2 -7 3 -3 12 5 12 108 456 121 522 14 69 25 100 31 93 1 -2 6 -32 9 -68z
m-343 -797 c-33 -115 -109 -296 -162 -389 -78 -135 -180 -244 -246 -261 -51
-12 -70 44 -48 136 32 127 222 366 393 494 35 26 65 47 67 47 2 0 0 -12 -4
-27z"/>
</g>
</svg>
